/* XPM */
static char *_eaeab88c66a43ae926f8192830e1642Of2yRkc42EWY3W1r[] = {
/* columns rows colors chars-per-pixel */
"32 31 182 2 ",
"   c #000200",
".  c #010B01",
"X  c #08140B",
"o  c #111A13",
"O  c #1E1E1E",
"+  c #261608",
"@  c #271F08",
"#  c #321000",
"$  c #3C1702",
"%  c #0A270B",
"&  c #0B2A0C",
"*  c #142B0B",
"=  c #0E330E",
"-  c #0F3910",
";  c #113611",
":  c #123C12",
">  c #1F331F",
",  c #3B261B",
"<  c #3E2C19",
"1  c #1F3020",
"2  c #252525",
"3  c #2A2624",
"4  c #2A2B2B",
"5  c #3B2F23",
"6  c #273427",
"7  c #2D3A2D",
"8  c #333D34",
"9  c #3D3D3D",
"0  c #4B1E05",
"q  c #531D02",
"w  c #4D2800",
"e  c #4C2C08",
"r  c #592104",
"t  c #562F05",
"y  c #5E3202",
"u  c #5A3309",
"i  c #452F18",
"p  c #503110",
"a  c #652201",
"s  c #6D2400",
"d  c #702400",
"f  c #732801",
"g  c #7B2B02",
"h  c #643603",
"j  c #7D3701",
"k  c #413223",
"l  c #41342E",
"z  c #443A36",
"x  c #463F3A",
"c  c #0F4010",
"v  c #114212",
"b  c #134B14",
"n  c #145415",
"m  c #145917",
"M  c #16651A",
"N  c #166919",
"B  c #1B6C1D",
"V  c #17701B",
"C  c #1A741D",
"Z  c #1D781F",
"A  c #374037",
"S  c #3E453E",
"D  c #207B22",
"F  c #7B4000",
"G  c #46423E",
"H  c #424542",
"J  c #4C4744",
"K  c #4D4945",
"L  c #474748",
"P  c #4D4D4B",
"I  c #535353",
"U  c #575857",
"Y  c #5C5C5C",
"T  c #636363",
"R  c #686768",
"E  c #6A696A",
"W  c #6F7070",
"Q  c #737474",
"!  c #77797A",
"~  c #7B7B7C",
"^  c #872E00",
"/  c #8C2F00",
"(  c #953200",
")  c #983300",
"_  c #903F01",
"`  c #A13400",
"'  c #A43901",
"]  c #AA3901",
"[  c #B63D01",
"{  c #BC3F01",
"}  c #8C4901",
"|  c #964E02",
" . c #9B5000",
".. c #B54105",
"X. c #BF4203",
"o. c #A35400",
"O. c #AE5100",
"+. c #AC5901",
"@. c #B05D03",
"#. c #BC6304",
"$. c #C44302",
"%. c #CB4501",
"&. c #C84D02",
"*. c #D44A03",
"=. c #DB4C02",
"-. c #C25500",
";. c #E54E01",
":. c #E94F01",
">. c #E75104",
",. c #EC5203",
"<. c #E95D05",
"1. c #F25301",
"2. c #F45E01",
"3. c #C86700",
"4. c #C96902",
"5. c #D77004",
"6. c #DC7404",
"7. c #E36B03",
"8. c #F36402",
"9. c #E37601",
"0. c #E67905",
"q. c #EE7D03",
"w. c #F07602",
"e. c #FC7500",
"r. c #F37E03",
"t. c #FA7E01",
"y. c #1D811F",
"u. c #1F8622",
"i. c #208623",
"p. c #218A23",
"a. c #229425",
"s. c #239927",
"d. c #269B29",
"f. c #289E2A",
"g. c #26A429",
"h. c #29A62C",
"j. c #27AB2A",
"k. c #29A82C",
"l. c #F68104",
"z. c #FB8202",
"x. c #F78907",
"c. c #F68D09",
"v. c #FB9107",
"b. c #F3930D",
"n. c #F99109",
"m. c #F6990E",
"M. c #F99F0F",
"N. c #F49F12",
"B. c #FBA00E",
"V. c #F4A314",
"C. c #F9AC14",
"Z. c #F0AE1A",
"A. c #EFB21D",
"S. c #FAB317",
"D. c #F4B51B",
"F. c #FAB619",
"G. c #F7B81B",
"H. c #F9B91A",
"J. c #7F8182",
"K. c #848485",
"L. c #858788",
"P. c #898789",
"I. c #86898B",
"U. c #8A8C8D",
"Y. c #8D9092",
"T. c #929495",
"R. c #989799",
"E. c #97989A",
"W. c gray65",
"Q. c #A5A7A8",
"!. c #ACADAE",
"~. c #B5B5B6",
"^. c #B9B9BA",
"/. c #BFC0C1",
"(. c #C4C4C5",
"). c #C7C8C8",
"_. c #CECDCE",
"`. c #D3D3D4",
"'. c #D7D8D8",
"]. c #DDDDDD",
"[. c #E3E3E3",
"{. c #E9E9E9",
/* pixels */
"{.[.].[.{.{.].].{.{.{.].].{.{.[.].[.{.{.[.].[.{.{.].].{.{.{.].].",
"[.[.[.[.{.[.[.[.].[.].[.[.[.[.[.[.[.[.[.].[.[.[.[.[.[.[.[.].[.[.",
"].{.{.{.].].{.{.[.].[.{.].].].{.{.{.].].{.{.[.].].{.{.[.].[.{.{.",
"].[.{.[.].].{.{.[.].].].T !.[.].`.`.`.].{.{.[.].].{.{.[.[.[.{.[.",
"{.].].[.{.[.].].[.{.{.~.9 W.Q H 8 7 A P E R.).{.{.].].[.{.[.].].",
"{.[.].[.{.{.].].{.{.{.Q O 2   . % b N V m : 6 T ^.].].{.{.{.].].",
"[.].{.].[.].[.{.[.{.].I Y R & C M v & b i.g.p.n 1 ! `.[.[.].{.[.",
"].{.{.{.].[.]./.E.Q T 2 L T o N j.h.p.n % n s.k.u.- U _.].[.{.{.",
"[.[.{.[.`.U.K < u F } w h j a @ C h.k.h.p.c = Z h.s.c Y ].[.{.[.",
"{.[.].!.G t o.5.r.z.z.0.q.e.1.] @ m s.j.k.f.N % n d.s.; K.{.].].",
"{.[.!.5 | r.z.l.z.z.z.l.l.z.8.1.X.q * M d.k.h.p.- : a.y.6 (.[.].",
"[._.x  .z.l.n.M.N.m.c.z.z.l.7.' :.:.] 0 * V f.k.d.b = p.b Q {.[.",
"].L.y r.x.V.F.H.D.A.D.B.z.l.6._ ;.1.>.*.` $ = D h.h.n = B 7 _.{.",
"].J +.z.M.D.D.D.D.H.D.D.m.l.z.w.1.,.[ g ,.*.$ X b a.g.Z s.v P.{.",
"(.k 5.z.C.H.D.D.H.H.H.D.V.z.z.z.<.,.;.=.,.,./ 9 T > b C a.C S `.",
"Q.p q.l.C.G.D.D.D.H.D.D.V.z.z.l.8.;.=.1.X.] [ z `.~.~ H > - o R.",
"Y.u z.z.b.D.H.H.D.D.D.S.v.l.l.t.2.{ g >.$.] $.l _.{.{.'.^.K.4 I ",
"I.h z.z.l.b.C.F.D.Z.V.v.z.0.@.w.1.;.*.,.1.1.[ x `.{.{.[.].{.).Q ",
"E.u 5.| r.z.l.c.c.v.l.l.z.6.} 7.,.,.1.1.,.1.^ Y [.].[.[.{.[.[.].",
"~.i 4.@.z.z.l.r.z.z.z.l.l.z.t.2.>.,.( %.1...# T.{.].].{.{.{.].].",
"'.J +.z.z.l.l.z.l.z.l.z.l.r.8.,.,.,.] *.1.] 3 ).[.[.[.[.{.[.[.].",
"[.T.e 9.r.} 4.z.z.r.l.z.t.8.=.%.1.1.,.,.:.a W ].].{.{.[.].[.{.{.",
"[.].T h 9.#.9.z.l.l.+.O.2.,.$.g :.,.,.X.q z ).[.].{.{.].].[.{.{.",
"{.[._.Y t 3.l.r.z.e.&.$.,.1.,.;.,.,.;.d 4 !.[.{.[.].].[.{.[.].].",
"{.[.].].K.5 h y -.1.,.*.,.1.;.$.$.) 0 J ~.].[.{.{.].].{.{.[.].].",
"[.[.{.[.{.(.~ 9 , r r # s f q + , P T.`.[.{.].[.[.[.[.].[.[.{.[.",
"].{.{.{.].[.{.].^.T.J.Q Q ! L.W.).].[.].{.{.[.].].{.{.[.].[.{.{.",
"[.[.{.[.[.].[.{.[.{.[.{.{.[.{.[.{.[.[.[.[.{.].[.].{.{.[.[.[.{.[.",
"{.[.].[.{.{.].].[.{.{.].].{.{.[.].[.{.{.[.].[.{.{.].].[.{.[.].].",
"{.[.].[.{.{.].].[.{.[.].].{.{.[.].[.{.{.].].[.{.[.].].[.{.[.].].",
"].[.{.[.[.].[.{.].[.].{.[.].[.[.{.[.[.].[.{.].[.].[.{.].[.].{.{."
};
