/* XPM */
static char *_f652e58be0346c6fd61c89da5e8b79bI35YP7tCjoq0Wran[] = {
/* columns rows colors chars-per-pixel */
"32 32 115 2 ",
"   c #2E3033",
".  c #313337",
"X  c #34363A",
"o  c #373A3D",
"O  c #383A3E",
"+  c #3A3E41",
"@  c #3F4246",
"#  c #404347",
"$  c #43464A",
"%  c #464A4E",
"&  c #494D51",
"*  c #4D5155",
"=  c #4F5358",
"-  c #515457",
";  c #51555A",
":  c #55595E",
">  c #575B60",
",  c #595E62",
"<  c #5D6166",
"1  c #5F6468",
"2  c #61656A",
"3  c #65696E",
"4  c #666B70",
"5  c #6A6E73",
"6  c #6C7176",
"7  c #6E7378",
"8  c #71767B",
"9  c #74797E",
"0  c #777B80",
"q  c #797E82",
"w  c #7D8185",
"e  c #7E8388",
"r  c #818589",
"t  c #85898E",
"y  c #898C8F",
"u  c #8A8E92",
"i  c #8E9296",
"p  c #909497",
"a  c #909498",
"s  c #96999C",
"d  c #989B9F",
"f  c #999CA0",
"g  c #9DA0A3",
"h  c #A1A3A6",
"j  c #A6A9AC",
"k  c #ABADAF",
"l  c #ABADB0",
"z  c #B1B4B7",
"x  c #B3B5B8",
"c  c #B6B8BA",
"v  c #B6B8BB",
"b  c #B7B9BC",
"n  c #B8BABD",
"m  c #BBBDC0",
"M  c #BEC0C2",
"N  c #BEC0C3",
"B  c #C9CBCD",
"V  c #CACBCD",
"C  c #CACCCE",
"Z  c #CBCCCE",
"A  c #CECFD0",
"S  c #CFD0D2",
"D  c #CFD1D3",
"F  c #D2D3D4",
"G  c #D3D4D4",
"H  c #D3D4D5",
"J  c #D6D7D9",
"K  c #D7D8DA",
"L  c #D8D9DB",
"P  c #DADBDC",
"I  c #DADBDD",
"U  c #DCDDDE",
"Y  c #DCDDDD",
"T  c #DFDFE0",
"R  c #DFDFE0",
"E  c #DFE0E1",
"W  c #E1E2E3",
"Q  c #E4E5E5",
"!  c #E5E5E6",
"~  c #E3E4E4",
"^  c #E6E7E8",
"/  c #E7E7E8",
"(  c #E9EAEA",
")  c gray92",
"_  c #EAEBEC",
"`  c #ECEDED",
"'  c #EDEEEE",
"]  c #EEEEEE",
"[  c #EFEFEF",
"{  c #ECECEC",
"}  c #EFEFF0",
"|  c gray94",
" . c #F1F1F1",
".. c #F2F2F1",
"X. c #F1F2F2",
"o. c gray95",
"O. c #F3F3F3",
"+. c #F4F4F4",
"@. c #F4F5F5",
"#. c gray96",
"$. c #F6F6F6",
"%. c #F7F6F6",
"&. c #F6F7F7",
"*. c gray97",
"=. c #F6F6F6",
"-. c #F8F7F7",
";. c #F8F8F8",
":. c #F9F9F9",
">. c gray98",
",. c #FBFBFB",
"<. c gray99",
"1. c #FDFDFD",
"2. c #FEFEFE",
"3. c white",
"4. c #FAFAFA",
/* pixels */
"3.+.+.3.| ,.,.| 3.+.+.3.| ,.,.| 3.+.+.3.| ,.,.| 3.+.+.3.| ,.,.` ",
"+.+.+.+.,.+.+.,.+.+.+.+.,.` B j z L } +.,.+.+.,.+.+.+.+.,.+.+.,.",
"+.+.+.+.,.+.+.,.+.+.,.| D e % X . ; u D +.+.+.,.+.+.+.+.,.+.+.,.",
"3.+.+.,.| ,.,.| ,.+.| n ;   + # % + o 3 N +.,.| ,.+.+.,.| ,.,.| ",
"| ,.,.| ,.+.+.,.| ,.N : + 2 4 2 5 2 ; @ 3 v +.,.| ,.,.| ,.+.+.3.",
",.+.+.,.+.+.+.+.,.F 3 o 2 9 4 4 5 2 1 , + 5 P +.,.+.+.,.+.+.+.+.",
",.+.+.,.+.+.+.+.| y O : 2 8 6 6 5 5 6 < ; , p ( ,.+.+.,.+.+.+.+.",
"| ,.,.| ,.+.+.3.W 5 @ < 5 6 4 6 0 0 6 2 : : 5 P +.,.,.| ,.+.+.3.",
"3.+.+.,.| ,.,.| +.i % : 6 7 3 7 q 9 6 5 2 , e ! 3.+.+.,.| ,.,.| ",
"+.+.+.+.,.+.+.,.| j & ; 2 4 5 5 9 q 6 3 , , d +.+.+.+.+.,.+.+.,.",
"+.+.+.+.,.+.+.,.! e + = : , 4 5 4 7 3 , , * u _ +.+.+.+.,.+.+.,.",
"3.+.+.,.| ,.,.| D - # : ; : 2 5 2 4 1 , < ; 2 B 3.+.+.,.| ,.,.| ",
"| ,.,.| ,.+.+.3.W 5 % , , 2 4 5 5 5 2 < 1 : e ^ | ,.,.| ,.+.+.3.",
",.+.+.,.+.+.+.+.+.s & 1 4 9 8 5 5 8 0 6 5 < h | ,.+.+.,.+.+.+.+.",
",.+.+.,.+.+.+.+.,.x & : 2 5 9 6 6 0 q 9 2 2 b +.,.+.+.,.+.+.+.+.",
"| ,.,.| ,.+.+.,.+.Z - # % < 8 9 8 8 q 0 4 8 Z 3.| ,.,.| ,.+.+.3.",
"3.+.+.,.| ,.,.| 3.U , # : 4 8 8 6 6 9 9 6 q K +.,.+.+.,.| ,.,.| ",
"+.+.+.+.,.+.+.,.+._ 9 % 2 5 9 8 4 3 6 9 4 e ! ,.+.+.+.+.,.+.+.,.",
"+.+.+.+.,.+.+.,.+.| r * 3 7 0 8 5 2 3 6 2 i | ,.+.+.+.+.,.+.+.,.",
"3.+.+.,.| ,.,.| ,.+.r + , , < 2 3 1 2 3 : h +.| ,.+.+.,.| ,.,.| ",
"| ,.,.| ,.+.+.,.| 3.k . # # ; < 2 < < 2 : l ,.,.| ,.,.| ,.+.+.3.",
",.+.+.,.+.+.+.+.,.W d & % % ; , , : : ; & 6 G +.,.+.+.,.+.+.+.+.",
",.+.+.,.+.+.+.+.` a 2 # X o # % & % $ # # @ y ` ,.+.+.,.+.+.+.+.",
"| ,.,.| ,.+.+.,.k < , ; * & & * : , : : < 3 6 m | ,.,.| ,.+.+.3.",
"3.+.+.,.| ,.,.T 5 ; & & % & * ; : , < < < , : 9 ( +.+.,.| ,.,.| ",
"+.+.+.+.,.+.+.l ; $ # # $ & * & & * ; : > : ; < h +.+.+.,.+.+.,.",
"+.+.+.+.,.-.A 6 < 2 3 6 5 3 3 3 5 7 8 8 6 5 8 q e G ,.+.,.+.+.,.",
"3.+.+.,.| ` t ; , < 1 6 7 5 5 5 9 q 8 8 5 5 q 0 r f ( 3.| ,.,.| ",
"| ,.,.| 3.v 5 7 9 0 9 9 e e e t i i u u r 8 q r r w n | ,.+.+.3.",
",.+.+.,.J 5 * : < 5 3 4 7 9 q 0 8 7 9 6 1 , ; 2 3 4 0 P +.+.+.+.",
",.+.+.+.g 3 2 2 6 9 8 9 e q e q 8 q q 8 6 5 5 8 8 0 q z | +.+.+.",
"` ,.,.` ( E W ^ U ! ! U ^ E W ^ U ! ! P ! W W ( T ! ~ W 3.+.+.3."
};
