/* XPM */
static char *_073b80951424f12b092ac4f9eef9228K0x7onFN7uqPAe4V[] = {
/* columns rows colors chars-per-pixel */
"32 31 196 2 ",
"   c black",
".  c #4E4E4E",
"X  c #FBFBFB",
"o  c white",
"O  c #FEFEFE",
"+  c #F5F4F2",
"@  c #A8A6A5",
"#  c #CDCDCC",
"$  c #DEDDDC",
"%  c #E1DAD4",
"&  c #E1D9D2",
"*  c #EEE9E4",
"=  c #CDCCCC",
"-  c #A9A8A7",
";  c #AAA9A8",
":  c #AAA8A6",
">  c #908C8A",
",  c #514E4C",
"<  c #565452",
"1  c #534E48",
"2  c #6E441D",
"3  c #814914",
"4  c #83674B",
"5  c #A8A8A7",
"6  c #CACACA",
"7  c #F8F6F5",
"8  c #E0D8D1",
"9  c #DED5CE",
"0  c #DFD7CF",
"q  c #C0BAB4",
"w  c #63605D",
"e  c #534F4C",
"r  c #54504C",
"t  c #585451",
"y  c #635F5B",
"u  c #625E5A",
"i  c #514E4B",
"p  c #49423A",
"a  c #4A4036",
"s  c #46392C",
"d  c #6A3708",
"f  c #8B4401",
"g  c #5B3B1B",
"h  c #474542",
"j  c #787775",
"k  c gray87",
"l  c #FDFDFD",
"z  c gainsboro",
"x  c #DBDBDA",
"c  c #AF9378",
"v  c #874F19",
"b  c #854B13",
"n  c #864B13",
"m  c #874C13",
"M  c #71461D",
"N  c #494541",
"B  c #514E4A",
"V  c #4E4B48",
"C  c #6A6662",
"Z  c #A49F99",
"A  c #A6A19B",
"S  c #9E9993",
"D  c #565350",
"F  c #503419",
"G  c #753C06",
"H  c #7A3F06",
"J  c #7D3F04",
"K  c #7D3D01",
"L  c #67380B",
"P  c #4B4138",
"I  c #4C4A47",
"U  c #595856",
"Y  c #A1A09F",
"T  c #ACABAB",
"R  c #9B9A99",
"E  c #545351",
"W  c #555351",
"Q  c #7F4E1F",
"!  c #9C4D01",
"~  c #A05103",
"^  c #A15103",
"/  c #9C4E01",
"(  c #914600",
")  c #784310",
"_  c #484541",
"`  c #4E4C49",
"'  c #444240",
"]  c #524F4C",
"[  c #696561",
"{  c #67635F",
"}  c #4B4946",
"|  c #553415",
" . c #984C02",
".. c #A05003",
"X. c #924801",
"o. c #8F5925",
"O. c #89613B",
"+. c #75675A",
"@. c #6E6D6B",
"#. c #C3C3C2",
"$. c #CFCFCE",
"%. c gray74",
"&. c #72716F",
"*. c #71706E",
"=. c #804F21",
"-. c #9C4E03",
";. c #A05104",
":. c #A15104",
">. c #8E4A07",
",. c #905E2E",
"<. c #B1977F",
"1. c #957E68",
"2. c #644323",
"3. c #67421F",
"4. c #766B60",
"5. c #7C7C7B",
"6. c #484644",
"7. c #4B4845",
"8. c #605F5E",
"9. c #A2907E",
"0. c #8B531E",
"q. c #8A521C",
"w. c #AB8E73",
"e. c #DDD4CB",
"r. c #F7F6F4",
"t. c #F5F5F4",
"y. c gray96",
"u. c gray97",
"i. c #F6F6F6",
"p. c #9C4E02",
"a. c #8E4805",
"s. c #8F5F31",
"d. c #B8A089",
"f. c #E6E0DA",
"g. c #C2AE9B",
"h. c #8B4806",
"j. c #905013",
"k. c #8E7E6F",
"l. c gray67",
"z. c #C5C3C1",
"x. c #5E5B58",
"c. c #56514D",
"v. c #828180",
"b. c #FCFBFA",
"n. c #DFD7D0",
"m. c #DED6CE",
"M. c #FCFCFB",
"N. c #7D4C1D",
"B. c #8A4707",
"V. c #905F2F",
"C. c #B69F8A",
"Z. c #EAE4DF",
"A. c #EEEAE6",
"S. c #8F6033",
"D. c #934800",
"F. c #9A7551",
"G. c #F2F1EF",
"H. c #F9F9F9",
"J. c #FAF8F5",
"K. c #979390",
"L. c #55514D",
"P. c #696664",
"I. c #D7D7D7",
"U. c #967759",
"Y. c #B79F89",
"T. c #E7E2DC",
"R. c #B6A08A",
"E. c #8F4A07",
"W. c #884B10",
"Q. c #D2C5B9",
"!. c #C3C1BF",
"~. c #54504D",
"^. c #B5B5B4",
"/. c #FAF9F8",
"(. c #D2C4B7",
"). c #8C5928",
"_. c #A68362",
"`. c #F4F2EF",
"'. c #E4E3E2",
"]. c #726F6C",
"[. c #858482",
"{. c #F3F3F3",
"}. c #E7E1DB",
"|. c #F3F0ED",
" X c #A9A6A3",
".X c #595451",
"XX c #5A5754",
"oX c #C7C7C6",
"OX c #EBEAE9",
"+X c #6B6866",
"@X c #524E4A",
"#X c #8D8C8B",
"$X c #C5C4C4",
"%X c #8A8887",
"&X c #DEDDDD",
"*X c #888888",
/* pixels */
"                                                                ",
"o o o o o o o o o o o o o o o o o o o o o o o o o o o o o o o o ",
"o o o o o o o o o o o o o o o o o o o o o o o o o o o o o o o o ",
"o o o o o o o o o o o o o o o o o o o o o o o o o o o o o o o o ",
"o o o o o o o o o o o o o o o o o o o o o o o o o o o o o o o o ",
"o o o o o o o o o o o o o o o o o o o o o o o o o o o o o o o o ",
"o o o o o o o o o o o o o o o o o o o o o o o o o o o o o o o o ",
"o o o o o o o o o o o o o o o o o o o o o o o o o o o o o o o o ",
"o o o o o o o o o o o o o o o o o o o o o o o o o o o o o o o o ",
"o o o o o o o o o o o o o o o o o O o o o o o o o o o o o o o o ",
"o o o o o o o o o o o o o o o o + @ # $ % & * o o o o o o o o o ",
"o o o o o o o o o = - ; ; - - : > , < 1 2 3 4 5 6 o o o o o o o ",
"7 8 9 9 9 9 9 0 q w e r t y y u i p a s d f g h j k l o o X z x ",
"c v b b b b n m M N B V C Z A S D F G H J K L P I U Y T T R E W ",
"Q ! ~ ~ ~ ^ / ( ) _ ` ' ] [ C { } |  ...X.o.O.+.@.j #.$.$.%.&.*.",
"=.-.;.:.! >.,.<.1.2.3.4.5.6.' 7.8.9.0.q.w.e.r.t.y.u.o o o o i.y.",
"=.p.p.a.s.d.f.o g.h.j.k.l.z.x.c.v.b.n.m.M.o o o o o o o o o o o ",
"N.B.V.C.Z.O o A.S.D.F.G.H.J.K.L.P.I.o o o o o o o o o o o o o o ",
"U.Y.T.o o o o R.E.W.Q.o o o !.~.e ^.o o o o o o o o o o o o o o ",
"/.l o o o o o (.)._.`.o o o '.].r [.{.o o o o o o o o o o o o o ",
"o o o o o o o O }.|.o o o o o  X.XXXoXo o o o o o o o o o o o o ",
"o o o o o o o o o o o o o o o OX+X@X#XO o o o o o o o o o o o o ",
"o o o o o o o o o o o o o o o O $X%X&Xo o o o o o o o o o o o o ",
"o o o o o o o o o o o o o o o o o l o o o o o o o o o o o o o o ",
"o o o o o o o o o o o o o o o o o o o o o o o o o o o o o o o o ",
"o o o o o o o o o o o o o o o o o o o o o o o o o o o o o o o o ",
"o o o o o o o o o o o o o o o o o o o o o o o o o o o o o o o o ",
"o o o o o o o o o o o o o o o o o o o o o o o o o o o o o o o o ",
"o o o o o o o o o o o o o o o o o o o o o o o o o o o o o o o o ",
"                                                                ",
"                                                                "
};
